PathFileType	4	(X/Y/Z)	Walk8.trc
DataRate	CameraRate	NumFrames	NumMarkers	Units	OrigDataRate	OrigDataStartFrame	OrigNumFrames
200.000000	200.000000	6	59	mm	200.000000	418	530
Frame#	Times		LBHD		C7		T10		LPSI		RPSI		RCAR		LElbowM		LTB1		RWRR		LLFC		LUA1		LFHD		RUA1		LACR1		LCAR		RWRU		RFA1		RElbowM		RTH3		LWRU		LFA1		CLAV		STRN		RACR1		RBack		RTB1		RBHD		RTH2		RCAL		RTB4		LWRR		RToe		RTB3		RFHD		RMT1		RTB2		RTH4		RMT5		RElbow		RTH1		LTB3		LElbow		LMT1		RMMAL		LTH1		LTH3		LTH4		RASI		RLFC		LTH2		LCAL		LLMAL		LMT5		LASI		RLMAL		LTB2		LTB4		LToe		LMMAL
			X1	Y1	Z1	X2	Y2	Z2	X3	Y3	Z3	X4	Y4	Z4	X5	Y5	Z5	X6	Y6	Z6	X7	Y7	Z7	X8	Y8	Z8	X9	Y9	Z9	X10	Y10	Z10	X11	Y11	Z11	X12	Y12	Z12	X13	Y13	Z13	X14	Y14	Z14	X15	Y15	Z15	X16	Y16	Z16	X17	Y17	Z17	X18	Y18	Z18	X19	Y19	Z19	X20	Y20	Z20	X21	Y21	Z21	X22	Y22	Z22	X23	Y23	Z23	X24	Y24	Z24	X25	Y25	Z25	X26	Y26	Z26	X27	Y27	Z27	X28	Y28	Z28	X29	Y29	Z29	X30	Y30	Z30	X31	Y31	Z31	X32	Y32	Z32	X33	Y33	Z33	X34	Y34	Z34	X35	Y35	Z35	X36	Y36	Z36	X37	Y37	Z37	X38	Y38	Z38	X39	Y39	Z39	X40	Y40	Z40	X41	Y41	Z41	X42	Y42	Z42	X43	Y43	Z43	X44	Y44	Z44	X45	Y45	Z45	X46	Y46	Z46	X47	Y47	Z47	X48	Y48	Z48	X49	Y49	Z49	X50	Y50	Z50	X51	Y51	Z51	X52	Y52	Z52	X53	Y53	Z53	X54	Y54	Z54	X55	Y55	Z55	X56	Y56	Z56	X57	Y57	Z57	X58	Y58	Z58	X59	Y59	Z59

418	2.09	403.02	1462.3	-26.147	390.93	1332.7	44.256	360.22	1067.6	31.141	340.33	868.19	-15.344	329.18	890.26	81.034	640.35	747.3	316.77	386.25	958	-168.58	711.72	361.35	-29.063	652.01	793.33	271.46	631.69	446.61	-103.6	459.57	1105.4	-210.91	575.39	1484.5	-12.473	498.54	1120.6	273.99	469.64	1272.4	-121.75	512.63	715.33	-304.69	586.73	759.39	286.91	535.94	854.82	310.87	454.72	932.18	237.61	412.47	545.77	198.39	460.64	753.32	-295.68	435.24	873.07	-271.78	518.11	1257.8	44.738	580.84	1151.3	40.001	471.31	1275.8	195.79	372.87	1234.1	175.1	391.35	321.54	89.386	406.66	1471.4	96.964	503.03	631.57	188.82	237.98	46.27	112.53	363.55	233.45	90.07	520.44	749.58	-251.83	447.04	23.551	57.713	347.73	140.65	84.592	583.22	1495.1	63.878	387.22	41.796	55.85	348.72	233.95	160.76	433.19	635.96	222.91	374.21	31.875	114.58	499.48	977.29	311.29	455.32	718.57	250.16	774.61	190.1	-23.229	415.12	993	-234.28	879.3	104.41	-28.51	295.34	74.153	50.052	530.91	719.65	-158.16	614.6	557.34	-113.82	575.61	639.61	-134.92	562.13	861.06	175.29	401.81	445.84	178.49	626.25	679.35	-99.078	743.65	30.334	-14.696	766.08	78.264	-62.431	859.9	78.027	-78.66	544.66	841.96	-124.14	303.03	64.829	130.15	706.95	260.82	-91.443	734.37	272.25	-26.753	926.26	108.22	-47.014	790.07	93.532	11.506
419	2.095	408.77	1461.1	-26.935	396.58	1331.5	43.551	365.95	1066.4	30.592	346.29	867.12	-16.076	334.79	889.42	80.208	647.19	746.63	315.98	391.58	956.64	-168.65	718.75	361.34	-28.741	658.57	792.59	270.55	637.78	445.55	-103.55	464.81	1103.9	-211.38	581.17	1483.2	-13.276	504.66	1119.7	273.44	475.31	1271	-122.37	516.69	713.61	-305.18	593.44	758.58	286.35	542.6	853.98	310.44	461.02	931.04	237.43	416.08	545.2	198.43	464.86	751.79	-296.07	439.92	871.62	-272.05	523.83	1256.6	44.114	586.6	1150.2	39.568	476.98	1274.8	195.17	378.55	1233	174.53	393.79	321.04	89.32	412.43	1470.2	96.174	507.22	630.42	189.22	238.08	46.959	112.21	365.24	233.19	89.879	524.78	747.85	-252.39	447.09	23.6	57.616	348.62	140.53	84.38	588.95	1493.8	63.089	387.31	41.782	55.613	350.3	233.82	160.58	437.23	635.26	222.98	374.18	31.914	114.32	506.02	976.39	310.79	459.75	717.74	250.29	784.38	191.02	-23.291	420.23	991.55	-234.48	890.56	106.66	-28.463	295.67	74.506	49.769	536.21	718.13	-158.24	620.28	556.04	-113.71	581.11	638.22	-135.02	567.82	860.24	174.44	404.85	445.32	178.46	631.81	678.08	-99.356	755.82	30.55	-15.416	777.8	79.108	-62.946	871.7	80.251	-78.792	551.07	840.46	-124.01	303.26	65.217	130.06	716	260.96	-91.624	742.8	272.54	-26.697	937.41	111.26	-46.476	801.16	94.559	11.183
420	2.1	414.53	1460	-27.753	402.24	1330.3	42.814	371.74	1065.1	30.037	352.27	866.1	-16.816	340.46	888.57	79.393	654.01	745.98	315.17	396.94	955.3	-168.72	725.7	361.27	-28.469	665.11	791.86	269.64	644.01	444.6	-103.53	470.05	1102.5	-211.88	586.96	1481.9	-14.098	510.76	1118.8	272.88	480.99	1269.6	-123.03	520.78	711.91	-305.68	600.11	757.79	285.79	549.23	853.16	309.99	467.31	929.95	237.22	419.74	544.65	198.45	469.12	750.27	-296.46	444.61	870.18	-272.33	529.56	1255.5	43.459	592.4	1149.1	39.109	482.64	1273.8	194.52	384.25	1231.9	173.92	396.29	320.56	89.255	418.19	1469.1	95.355	511.43	629.3	189.63	238.18	47.706	111.89	366.97	232.95	89.685	529.15	746.16	-252.95	447.14	23.649	57.513	349.53	140.44	84.173	594.67	1492.5	62.282	387.42	41.775	55.378	351.89	233.74	160.4	441.31	634.57	223.07	374.15	31.968	114.06	512.54	975.5	310.26	464.21	716.92	250.41	793.67	191.78	-23.326	425.34	990.12	-234.68	901.13	108.58	-28.352	296.01	74.899	49.482	541.6	716.74	-158.29	626.09	554.88	-113.59	586.72	636.95	-135.09	573.56	859.41	173.6	407.94	444.82	178.41	637.47	676.94	-99.605	767.19	30.705	-16.049	788.81	79.823	-63.385	882.75	82.165	-78.844	557.52	839.03	-123.86	303.5	65.627	129.94	724.73	261.03	-91.791	750.96	272.74	-26.647	947.88	113.87	-45.888	811.57	95.425	10.931
421	2.105	420.3	1458.9	-28.601	407.93	1329.1	42.043	377.57	1063.9	29.48	358.29	865.12	-17.557	346.17	887.72	78.593	660.79	745.34	314.36	402.35	953.96	-168.79	732.59	361.11	-28.245	671.62	791.13	268.73	650.37	443.77	-103.51	475.3	1101.2	-212.41	592.75	1480.7	-14.938	516.85	1117.9	272.3	486.68	1268.2	-123.73	524.92	710.25	-306.17	606.76	757.01	285.21	555.83	852.37	309.53	473.59	928.89	236.97	423.43	544.11	198.44	473.41	748.79	-296.84	449.31	868.76	-272.61	535.32	1254.4	42.774	598.21	1148	38.62	488.32	1272.8	193.83	389.96	1230.8	173.27	398.82	320.08	89.185	423.96	1468	94.505	515.67	628.2	190.03	238.3	48.516	111.58	368.74	232.73	89.489	533.56	744.5	-253.51	447.18	23.696	57.405	350.47	140.36	83.972	600.4	1491.3	61.458	387.53	41.777	55.145	353.52	233.69	160.21	445.42	633.89	223.15	374.13	32.038	113.8	519.03	974.64	309.7	468.68	716.12	250.53	802.48	192.34	-23.33	430.45	988.7	-234.88	910.99	110.13	-28.17	296.37	75.335	49.197	547.11	715.48	-158.3	632.02	553.85	-113.45	592.44	635.82	-135.13	579.35	858.57	172.78	411.09	444.32	178.35	643.24	675.94	-99.813	777.74	30.77	-16.595	799.08	80.376	-63.746	893.05	83.728	-78.813	563.99	837.66	-123.69	303.75	66.058	129.78	733.12	261.02	-91.938	758.85	272.82	-26.6	957.65	116.01	-45.249	821.29	96.094	10.75
422	2.11	426.09	1457.8	-29.479	413.63	1328	41.238	383.45	1062.7	28.921	364.32	864.18	-18.291	351.94	886.86	77.815	667.54	744.71	313.54	407.8	952.65	-168.87	739.44	360.86	-28.064	678.1	790.43	267.83	656.87	443.04	-103.5	480.57	1099.8	-212.96	598.56	1479.5	-15.796	522.93	1117.1	271.69	492.38	1266.9	-124.47	529.09	708.61	-306.65	613.38	756.25	284.64	562.4	851.6	309.04	479.85	927.88	236.67	427.17	543.58	198.4	477.74	747.33	-297.22	454.03	867.37	-272.9	541.11	1253.3	42.057	604.06	1147	38.1	494.02	1271.8	193.12	395.7	1229.8	172.6	401.41	319.6	89.108	429.73	1467	93.626	519.94	627.12	190.44	238.42	49.391	111.27	370.55	232.52	89.291	538	742.88	-254.07	447.22	23.742	57.292	351.43	140.32	83.778	606.12	1490.1	60.615	387.66	41.787	54.917	355.18	233.68	160.01	449.56	633.22	223.24	374.12	32.123	113.55	525.49	973.81	309.12	473.19	715.34	250.65	810.82	192.68	-23.302	435.57	987.31	-235.1	920.15	111.25	-27.915	296.76	75.815	48.919	552.75	714.36	-158.29	638.11	552.96	-113.31	598.31	634.83	-135.14	585.2	857.73	171.97	414.3	443.84	178.28	649.13	675.07	-99.973	787.44	30.722	-17.061	808.59	80.739	-64.031	902.59	84.902	-78.701	570.49	836.36	-123.51	304.01	66.508	129.6	741.19	260.91	-92.06	766.47	272.78	-26.553	966.74	117.61	-44.559	830.31	96.531	10.642
423	2.115	431.88	1456.8	-30.388	419.36	1326.9	40.401	389.37	1061.5	28.363	370.39	863.29	-19.014	357.76	886.01	77.061	674.25	744.11	312.72	413.29	951.36	-168.95	746.24	360.52	-27.917	684.56	789.74	266.94	663.51	442.42	-103.48	485.87	1098.5	-213.53	604.37	1478.3	-16.672	528.98	1116.3	271.07	498.11	1265.6	-125.24	533.29	707.02	-307.14	619.96	755.52	284.05	568.95	850.86	308.55	486.1	926.91	236.34	430.95	543.07	198.33	482.11	745.89	-297.6	458.77	865.99	-273.19	546.93	1252.3	41.308	609.94	1146.1	37.545	499.74	1270.9	192.36	401.46	1228.8	171.89	404.05	319.14	89.022	435.5	1465.9	92.716	524.25	626.07	190.84	238.56	50.336	110.98	372.4	232.34	89.092	542.47	741.29	-254.61	447.25	23.784	57.175	352.42	140.31	83.591	611.85	1488.9	59.755	387.79	41.806	54.697	356.87	233.71	159.8	453.75	632.57	223.32	374.12	32.224	113.31	531.91	973.01	308.53	477.72	714.58	250.75	818.69	192.78	-23.239	440.71	985.94	-235.33	928.61	111.93	-27.586	297.17	76.34	48.653	558.53	713.38	-158.25	644.34	552.19	-113.16	604.31	633.97	-135.12	591.1	856.9	171.19	417.58	443.37	178.2	655.14	674.35	-100.08	796.3	30.546	-17.454	817.36	80.889	-64.238	911.36	85.66	-78.509	577.03	835.12	-123.32	304.3	66.98	129.38	748.93	260.7	-92.15	773.84	272.59	-26.5	975.14	118.65	-43.819	838.62	96.711	10.606
